<?xml version="1.0" encoding="UTF-8" standalone="no"?>
<svg
   xmlns:dc="http://purl.org/dc/elements/1.1/"
   xmlns:cc="http://creativecommons.org/ns#"
   xmlns:rdf="http://www.w3.org/1999/02/22-rdf-syntax-ns#"
   xmlns:svg="http://www.w3.org/2000/svg"
   xmlns="http://www.w3.org/2000/svg"
   xmlns:sodipodi="http://sodipodi.sourceforge.net/DTD/sodipodi-0.dtd"
   xmlns:inkscape="http://www.inkscape.org/namespaces/inkscape"
   width="144.90686mm"
   height="172.2466mm"
   viewBox="0 0 144.90686 172.2466"
   version="1.1"
   id="svg8"
   inkscape:version="1.0.1 (c497b03c, 2020-09-10)"
   sodipodi:docname="logo.svg">
  <defs
     id="defs2" />
  <sodipodi:namedview
     id="base"
     pagecolor="#ffffff"
     bordercolor="#666666"
     borderopacity="1.0"
     inkscape:pageopacity="0.0"
     inkscape:pageshadow="2"
     inkscape:zoom="0.32916571"
     inkscape:cx="30.760292"
     inkscape:cy="428.82633"
     inkscape:document-units="mm"
     inkscape:current-layer="layer1"
     inkscape:document-rotation="0"
     showgrid="false"
     inkscape:window-width="1252"
     inkscape:window-height="673"
     inkscape:window-x="0"
     inkscape:window-y="25"
     inkscape:window-maximized="0" />
  <metadata
     id="metadata5">
    <rdf:RDF>
      <cc:Work
         rdf:about="">
        <dc:format>image/svg+xml</dc:format>
        <dc:type
           rdf:resource="http://purl.org/dc/dcmitype/StillImage" />
        <dc:title></dc:title>
      </cc:Work>
    </rdf:RDF>
  </metadata>
  <g
     inkscape:label="Layer 1"
     inkscape:groupmode="layer"
     id="layer1"
     style="opacity:1"
     transform="translate(-14.285027,-2.3027719)">
    <g
       id="g87"
       transform="matrix(0.26416439,0,0,0.26416439,26.83214,39.082967)"
       style="display:inline">
      <path
         d="M 500.324,502.094 470.96,440.227 c -1.776,-3.742 -6.249,-5.336 -9.991,-3.56 -3.742,1.776 -5.336,6.249 -3.56,9.991 l 29.364,61.867 c 1.283,2.704 3.974,4.286 6.781,4.286 1.078,0 2.172,-0.233 3.21,-0.727 3.743,-1.775 5.337,-6.248 3.56,-9.99 z"
         id="path71" />
      <path
         d="m 457.211,411.258 -36.774,-77.481 8.271,-21.059 c 6.992,-17.803 6.489,-38.012 -1.379,-55.445 l -27.295,-60.482 c -5.565,-12.33 -14.635,-22.527 -26.23,-29.49 l -54.538,-32.754 c -5.916,-3.552 -12.405,-5.369 -18.869,-5.603 l -26.99,-56.908 c -1.775,-3.743 -6.249,-5.338 -9.99,-3.563 -3.743,1.774 -5.337,6.248 -3.563,9.99 l 25.134,52.995 c -7.402,2.79 -14.031,7.818 -18.775,14.846 -6.076,8.999 -8.183,20.234 -5.781,30.824 2.402,10.59 9.149,19.816 18.514,25.315 l 36.043,21.163 c -15.426,26.418 -21.164,57.233 -16.171,87.626 0.671,4.088 4.531,6.858 8.617,6.185 4.087,-0.671 6.856,-4.529 6.185,-8.616 -4.806,-29.25 1.605,-58.938 18.051,-83.599 1.145,-1.717 1.532,-3.829 1.07,-5.841 -0.462,-2.011 -1.732,-3.743 -3.512,-4.788 l -42.688,-25.065 c -5.892,-3.459 -9.969,-9.034 -11.48,-15.697 -1.511,-6.663 -0.238,-13.451 3.585,-19.114 7.284,-10.793 21.733,-13.995 32.897,-7.29 l 54.538,32.754 c 8.965,5.384 15.978,13.268 20.281,22.801 l 27.295,60.482 c 6.214,13.77 6.611,29.73 1.089,43.792 l -8.32,21.185 c -1.478,3.764 -1.331,8.017 0.403,11.669 l 36.832,77.602 c 1.283,2.704 3.974,4.286 6.781,4.286 1.078,0 2.172,-0.233 3.21,-0.727 3.741,-1.777 5.335,-6.251 3.559,-9.993 z"
         id="path73" />
      <path
         d="m 244.832,430.62 c -1.872,-3.944 -5.127,-7.028 -9.166,-8.682 l -7.274,-2.981 c -14.637,-5.995 -27.906,-14.537 -39.441,-25.388 -3.017,-2.838 -7.763,-2.693 -10.602,0.324 -2.838,3.017 -2.693,7.764 0.324,10.602 12.876,12.113 27.691,21.648 44.032,28.342 l 7.275,2.981 c 0.573,0.234 1.034,0.672 1.3,1.232 l 33.925,71.475 c 1.283,2.704 3.974,4.286 6.781,4.286 1.078,0 2.172,-0.233 3.21,-0.727 3.742,-1.776 5.336,-6.249 3.56,-9.991 z"
         id="path75" />
      <path
         d="M 160.822,354.963 57.833,137.975 c -4.709,-9.923 -0.781,-21.695 8.944,-26.801 4.961,-2.604 10.62,-3.062 15.935,-1.289 5.313,1.773 9.562,5.535 11.965,10.594 l 44.628,94.028 c 1.283,2.704 3.974,4.286 6.781,4.286 1.078,0 2.172,-0.233 3.21,-0.727 3.742,-1.775 5.336,-6.249 3.56,-9.991 l -44.625,-94.021 c 0,0 -12.958,-27.301 -12.958,-27.301 -4.822,-10.159 -0.479,-22.346 9.679,-27.168 4.921,-2.335 10.457,-2.615 15.588,-0.787 5.131,1.829 9.244,5.546 11.58,10.467 l 54.849,115.562 c 1.283,2.704 3.974,4.286 6.781,4.286 1.078,0 2.172,-0.233 3.21,-0.727 3.742,-1.776 5.336,-6.249 3.56,-9.991 L 137.432,45.473 c -2.335,-4.921 -2.615,-10.457 -0.787,-15.589 1.828,-5.131 5.545,-9.243 10.466,-11.579 10.159,-4.819 22.347,-0.479 27.168,9.68 l 57.684,121.217 c 1.287,2.696 3.974,4.271 6.774,4.271 1.083,0 2.183,-0.236 3.226,-0.733 3.738,-1.784 5.322,-6.262 3.538,-9.999 L 197.634,42.207 c -3.457,-9.727 0.955,-20.72 10.478,-25.239 10.16,-4.82 22.346,-0.479 27.167,9.678 l 10.878,22.937 c 1.774,3.742 6.248,5.338 9.99,3.563 3.743,-1.774 5.337,-6.248 3.563,-9.99 L 248.83,20.216 C 240.462,2.586 219.311,-4.953 201.68,3.417 194.779,6.692 189.434,11.931 185.975,18.146 176.636,2.986 157.127,-3.055 140.68,4.754 c -8.541,4.054 -14.992,11.19 -18.165,20.096 -2.153,6.045 -2.617,12.412 -1.428,18.55 -7.58,-1.634 -15.444,-0.745 -22.566,2.635 -17.631,8.368 -25.167,29.52 -16.799,47.15 l 0.55,1.158 c -7.642,-1.34 -15.457,-0.132 -22.468,3.55 -16.877,8.861 -23.695,29.293 -15.522,46.514 l 102.989,216.988 c 2.74,5.774 5.915,11.441 9.436,16.846 1.438,2.207 3.84,3.407 6.291,3.407 1.404,0 2.824,-0.394 4.087,-1.217 3.47,-2.262 4.451,-6.908 2.19,-10.378 -3.155,-4.844 -6,-9.921 -8.453,-15.09 z"
         id="path77"
         style="display:inline" />
      <path
         d="m 355.254,48.144 c 23.195,3.194 43.757,15.23 57.9,33.891 14.143,18.66 20.172,41.712 16.978,64.906 -0.565,4.104 2.303,7.888 6.406,8.453 0.347,0.048 0.692,0.071 1.033,0.071 3.688,0 6.903,-2.722 7.42,-6.478 3.742,-27.164 -3.32,-54.159 -19.883,-76.014 C 408.546,51.12 384.464,37.025 357.3,33.284 c -4.105,-0.572 -7.888,2.304 -8.453,6.406 -0.565,4.104 2.304,7.889 6.407,8.454 z"
         id="path79" />
      <path
         d="m 349.217,91.979 c 11.486,1.582 21.669,7.542 28.672,16.783 7.003,9.24 9.989,20.655 8.408,32.142 -0.565,4.104 2.303,7.889 6.407,8.453 0.347,0.048 0.691,0.071 1.032,0.071 3.688,0 6.903,-2.722 7.42,-6.478 2.128,-15.455 -1.889,-30.814 -11.313,-43.249 -9.424,-12.434 -23.125,-20.454 -38.581,-22.582 -4.105,-0.563 -7.888,2.303 -8.453,6.406 -0.564,4.104 2.305,7.889 6.408,8.454 z"
         id="path81" />
      <path
         d="M 98.195,398.636 C 75.188,394.296 55.247,381.254 42.047,361.914 28.847,342.576 23.969,319.255 28.31,296.246 c 0.768,-4.07 -1.909,-7.992 -5.979,-8.761 -4.072,-0.771 -7.992,1.909 -8.761,5.979 -5.084,26.946 0.629,54.258 16.087,76.906 15.459,22.648 38.812,37.922 65.757,43.005 0.47,0.089 0.938,0.131 1.398,0.131 3.535,0 6.683,-2.51 7.362,-6.11 0.768,-4.07 -1.908,-7.993 -5.979,-8.76 z"
         id="path83" />
      <path
         d="m 106.399,355.154 c -11.394,-2.15 -21.269,-8.608 -27.805,-18.185 -6.537,-9.576 -8.953,-21.125 -6.803,-32.52 0.768,-4.07 -1.909,-7.992 -5.979,-8.761 -4.07,-0.771 -7.993,1.909 -8.761,5.979 -2.892,15.333 0.359,30.873 9.154,43.76 8.795,12.885 22.082,21.574 37.413,24.468 0.47,0.089 0.938,0.131 1.399,0.131 3.535,0 6.682,-2.51 7.362,-6.11 0.768,-4.071 -1.909,-7.993 -5.98,-8.762 z"
         id="path85"
         style="display:inline" />
    </g>
    <g
       id="g44"
       transform="matrix(0.23322488,-0.12494196,0.12494196,0.23322488,-9.1736258,49.988036)"
       style="display:inline">
      <g
         id="g12">
        <path
           d="M 139,187.939 V 395 c 0,64.514 52.486,117 117,117 64.514,0 117,-52.486 117,-117 V 187.939 Z"
           fill="#fff4f4"
           id="path10"
           style="opacity:0.6" />
      </g>
      <path
         d="M 257.031,187.939 V 512 C 321.531,511.983 374,459.503 374,395 V 187.939 Z"
         fill="#f6efea"
         id="path14" />
      <g
         id="g20">
        <g
           id="g18">
          <path
             d="M 169,283.042 V 395 c 0,47.972 39.028,87 87,87 47.972,0 87,-39.028 87,-87 V 283.042 Z"
             fill="#ff9d21"
             id="path16" />
        </g>
      </g>
      <path
         d="M 256.031,283.042 V 482 C 303.989,481.983 343,442.961 343,395 V 283.042 Z"
         fill="#ff7d43"
         id="path22" />
      <path
         d="M 255.762,56.66 C 245.542,45.801 231.054,39 215,39 h -47 c -8.284,0 -15,6.716 -15,15 0,8.284 6.716,15 15,15 h 47 c 14.336,0 26,11.663 26,26 v 250 c 0,14.888 -12.112,27 -27,27 -8.284,0 -15,6.716 -15,15 0,8.284 6.716,15 15,15 9.763,0 18.959,-2.47 27,-6.814 V 420 c 0,8.284 6.716,15 15,15 l 15,-206.957 z"
         fill="#bee75e"
         id="path24" />
      <g
         id="g28">
        <path
           d="m 150.745,104.908 c -30.305,0 -58.062,-16.814 -74.25,-44.979 -2.66,-4.628 -2.66,-10.321 0,-14.949 C 92.682,16.814 120.439,0 150.745,0 c 30.306,0 58.063,16.814 74.25,44.979 2.66,4.628 2.66,10.321 0,14.949 -16.188,28.166 -43.945,44.98 -74.25,44.98 z"
           fill="#00cb75"
           id="path26" />
      </g>
      <path
         d="m 344,38.5 h -47 c -16.163,0 -30.738,6.893 -40.969,17.881 V 434.998 C 264.301,434.981 271,428.274 271,420 v -24.814 c 8.041,4.344 17.237,6.814 27,6.814 8.284,0 15,-6.716 15,-15 0,-8.284 -6.716,-15 -15,-15 -14.888,0 -27,-12.112 -27,-27 V 94.5 c 0,-14.337 11.664,-26 26,-26 h 47 c 8.284,0 15,-6.716 15,-15 0,-8.284 -6.716,-15 -15,-15 z"
         fill="#00cb75"
         id="path30" />
      <g
         id="g34">
        <path
           d="m 361.255,104.908 c -30.305,0 -76.91,-55.301 -74.25,-59.929 C 303.192,16.814 330.95,0 361.255,0 c 30.305,0 58.063,16.814 74.25,44.979 2.66,4.628 2.66,10.321 0,14.949 -16.188,28.166 -43.944,44.98 -74.25,44.98 z"
           fill="#00a78e"
           id="path32" />
      </g>
      <g
         id="g40">
        <g
           id="g38">
          <path
             d="M 384,188 H 128 c -8.284,0 -15,-6.716 -15,-15 0,-8.284 6.716,-15 15,-15 h 256 c 8.284,0 15,6.716 15,15 0,8.284 -6.716,15 -15,15 z"
             fill="#f6efea"
             id="path36" />
        </g>
      </g>
      <path
         d="M 384,158 H 256.031 v 30 H 384 c 8.284,0 15,-6.716 15,-15 0,-8.284 -6.716,-15 -15,-15 z"
         fill="#eee1dc"
         id="path42" />
    </g>
    <g
       id="g148"
       transform="matrix(0.26416439,0,0,0.26416439,26.83214,39.082967)"
       style="display:inline">
      <path
         d="M 500.324,502.094 470.96,440.227 c -1.776,-3.742 -6.249,-5.336 -9.991,-3.56 -3.742,1.776 -5.336,6.249 -3.56,9.991 l 29.364,61.867 c 1.283,2.704 3.974,4.286 6.781,4.286 1.078,0 2.172,-0.233 3.21,-0.727 3.743,-1.775 5.337,-6.248 3.56,-9.99 z"
         id="path132" />
      <path
         d="m 457.211,411.258 -36.774,-77.481 8.271,-21.059 c 6.992,-17.803 6.489,-38.012 -1.379,-55.445 l -27.295,-60.482 c -5.565,-12.33 -14.635,-22.527 -26.23,-29.49 l -54.538,-32.754 c -5.916,-3.552 -12.405,-5.369 -18.869,-5.603 -15.409,2.514 0,0 -15.409,2.514 -7.402,2.79 -14.031,7.818 -18.775,14.846 -6.076,8.999 -8.183,20.234 -5.781,30.824 2.402,10.59 9.149,19.816 18.514,25.315 l 36.043,21.163 c -15.426,26.418 -21.164,57.233 -16.171,87.626 0.671,4.088 4.531,6.858 8.617,6.185 4.087,-0.671 6.856,-4.529 6.185,-8.616 -4.806,-29.25 1.605,-58.938 18.051,-83.599 1.145,-1.717 1.532,-3.829 1.07,-5.841 -0.462,-2.011 -1.732,-3.743 -3.512,-4.788 l -42.688,-25.065 c -5.892,-3.459 -9.969,-9.034 -11.48,-15.697 -1.511,-6.663 -0.238,-13.451 3.585,-19.114 7.284,-10.793 21.733,-13.995 32.897,-7.29 l 54.538,32.754 c 8.965,5.384 15.978,13.268 20.281,22.801 l 27.295,60.482 c 6.214,13.77 6.611,29.73 1.089,43.792 l -8.32,21.185 c -1.478,3.764 -1.331,8.017 0.403,11.669 l 36.832,77.602 c 1.283,2.704 3.974,4.286 6.781,4.286 1.078,0 2.172,-0.233 3.21,-0.727 3.741,-1.777 5.335,-6.251 3.559,-9.993 z"
         id="path134"
         sodipodi:nodetypes="ccccccccccscccccscccscccccccccscc" />
      <path
         d="m 244.832,430.62 c -1.872,-3.944 -5.127,-7.028 -9.166,-8.682 l -7.274,-2.981 c -14.637,-5.995 -27.906,-14.537 -39.441,-25.388 -3.017,-2.838 -7.763,-2.693 -10.602,0.324 -2.838,3.017 -2.693,7.764 0.324,10.602 12.876,12.113 27.691,21.648 44.032,28.342 l 7.275,2.981 c 0.573,0.234 1.034,0.672 1.3,1.232 l 33.925,71.475 c 1.283,2.704 3.974,4.286 6.781,4.286 1.078,0 2.172,-0.233 3.21,-0.727 3.742,-1.776 5.336,-6.249 3.56,-9.991 z"
         id="path136" />
      <path
         d="m 355.254,48.144 c 23.195,3.194 43.757,15.23 57.9,33.891 14.143,18.66 20.172,41.712 16.978,64.906 -0.565,4.104 2.303,7.888 6.406,8.453 0.347,0.048 0.692,0.071 1.033,0.071 3.688,0 6.903,-2.722 7.42,-6.478 3.742,-27.164 -3.32,-54.159 -19.883,-76.014 C 408.546,51.12 384.464,37.025 357.3,33.284 c -4.105,-0.572 -7.888,2.304 -8.453,6.406 -0.565,4.104 2.304,7.889 6.407,8.454 z"
         id="path140" />
      <path
         d="m 349.217,91.979 c 11.486,1.582 21.669,7.542 28.672,16.783 7.003,9.24 9.989,20.655 8.408,32.142 -0.565,4.104 2.303,7.889 6.407,8.453 0.347,0.048 0.691,0.071 1.032,0.071 3.688,0 6.903,-2.722 7.42,-6.478 2.128,-15.455 -1.889,-30.814 -11.313,-43.249 -9.424,-12.434 -23.125,-20.454 -38.581,-22.582 -4.105,-0.563 -7.888,2.303 -8.453,6.406 -0.564,4.104 2.305,7.889 6.408,8.454 z"
         id="path142" />
      <path
         d="M 98.195,398.636 C 75.188,394.296 55.247,381.254 42.047,361.914 28.847,342.576 23.969,319.255 28.31,296.246 c 0.768,-4.07 -1.909,-7.992 -5.979,-8.761 -4.072,-0.771 -7.992,1.909 -8.761,5.979 -5.084,26.946 0.629,54.258 16.087,76.906 15.459,22.648 38.812,37.922 65.757,43.005 0.47,0.089 0.938,0.131 1.398,0.131 3.535,0 6.683,-2.51 7.362,-6.11 0.768,-4.07 -1.908,-7.993 -5.979,-8.76 z"
         id="path144" />
      <path
         d="m 106.399,355.154 c -11.394,-2.15 -21.269,-8.608 -27.805,-18.185 -6.537,-9.576 -8.953,-21.125 -6.803,-32.52 0.768,-4.07 -1.909,-7.992 -5.979,-8.761 -4.07,-0.771 -7.993,1.909 -8.761,5.979 -2.892,15.333 0.359,30.873 9.154,43.76 8.795,12.885 22.082,21.574 37.413,24.468 0.47,0.089 0.938,0.131 1.399,0.131 3.535,0 6.682,-2.51 7.362,-6.11 0.768,-4.071 -1.909,-7.993 -5.98,-8.762 z"
         id="path146"
         style="display:inline" />
    </g>
  </g>
</svg>
